<svg width="28" height="29" viewBox="0 0 28 29" fill="none" xmlns="http://www.w3.org/2000/svg">
<path d="M6.2845 11.6527C7.39742 8.28037 10.5666 5.85837 14.3204 5.85837C16.3383 5.85837 18.1609 6.57439 19.593 7.74607L23.7589 3.58011C21.2203 1.36695 17.9656 0 14.3204 0C8.67586 0 3.81607 3.22007 1.47974 7.93595L6.2845 11.6527Z" fill="#EA4335"/>
<path d="M19.1426 21.4954C17.8421 22.3352 16.1894 22.7823 14.3205 22.7823C10.5811 22.7823 7.42177 20.3788 6.29745 17.0266L1.47681 20.6868C3.81024 25.4109 8.6699 28.6407 14.3205 28.6407C17.8205 28.6407 21.1649 27.3964 23.6696 25.06L19.1426 21.4954Z" fill="#34A853"/>
<path d="M23.6694 25.0601C26.2888 22.6167 27.9898 18.9788 27.9898 14.3203C27.9898 13.4741 27.8597 12.5628 27.6644 11.7166H14.3203V17.2495H22.0013C21.6223 19.11 20.605 20.5511 19.1424 21.4955L23.6694 25.0601Z" fill="#4A90E2"/>
<path d="M6.2974 17.027C6.0126 16.1778 5.85837 15.2678 5.85837 14.3205C5.85837 13.3877 6.00795 12.4909 6.28453 11.6528L1.47977 7.93604C0.521011 9.85785 0 12.0238 0 14.3205C0 16.6113 0.530789 18.772 1.47675 20.6872L6.2974 17.027Z" fill="#FBBC05"/>
</svg>
